<svg width="25" height="26" viewBox="0 0 25 26" fill="none" xmlns="http://www.w3.org/2000/svg">
<path d="M21.0938 2.34863H3.90625C2.61182 2.34863 1.5625 3.39795 1.5625 4.69238V21.8799C1.5625 23.1743 2.61182 24.2236 3.90625 24.2236H21.0938C22.3882 24.2236 23.4375 23.1743 23.4375 21.8799V4.69238C23.4375 3.39795 22.3882 2.34863 21.0938 2.34863ZM10.2596 13.5842C5.83149 10.3705 5.87661 10.3624 4.6875 9.43687V8.20801C4.6875 7.56079 5.21216 7.03613 5.85938 7.03613H19.1406C19.7878 7.03613 20.3125 7.56079 20.3125 8.20801V9.43687C19.1225 10.3631 19.1683 10.3707 14.7404 13.5842C14.2277 13.958 13.2076 14.8596 12.5 14.8486C11.7918 14.8592 10.7731 13.9586 10.2596 13.5842ZM20.3125 11.4197V18.3643C20.3125 19.0115 19.7878 19.5361 19.1406 19.5361H5.85938C5.21216 19.5361 4.6875 19.0115 4.6875 18.3643V11.4197C5.36904 11.9467 6.31489 12.6519 9.34097 14.8481C10.0325 15.353 11.1952 16.4177 12.4999 16.4111C13.8127 16.4176 14.9919 15.3349 15.66 14.8474C18.6853 12.6518 19.631 11.9467 20.3125 11.4197Z" fill="#A4A1AA"/>
</svg>
