<svg width="25" height="26" viewBox="0 0 25 26" fill="none" xmlns="http://www.w3.org/2000/svg">
<path d="M12.5046 7.67065C9.39917 7.67065 6.89429 10.1755 6.89429 13.281C6.89429 16.3865 9.39917 18.8914 12.5046 18.8914C15.6101 18.8914 18.115 16.3865 18.115 13.281C18.115 10.1755 15.6101 7.67065 12.5046 7.67065ZM12.5046 16.9285C10.4978 16.9285 8.85718 15.2927 8.85718 13.281C8.85718 11.2693 10.4929 9.63354 12.5046 9.63354C14.5164 9.63354 16.1521 11.2693 16.1521 13.281C16.1521 15.2927 14.5115 16.9285 12.5046 16.9285ZM19.6531 7.44116C19.6531 8.1687 19.0671 8.74976 18.3445 8.74976C17.6169 8.74976 17.0359 8.16382 17.0359 7.44116C17.0359 6.71851 17.6218 6.13257 18.3445 6.13257C19.0671 6.13257 19.6531 6.71851 19.6531 7.44116ZM23.3689 8.76929C23.2859 7.01636 22.8855 5.46362 21.6013 4.18433C20.322 2.90503 18.7693 2.50464 17.0164 2.41675C15.2097 2.31421 9.79468 2.31421 7.98804 2.41675C6.23999 2.49976 4.68726 2.90015 3.40308 4.17944C2.1189 5.45874 1.72339 7.01147 1.6355 8.7644C1.53296 10.571 1.53296 15.9861 1.6355 17.7927C1.71851 19.5457 2.1189 21.0984 3.40308 22.3777C4.68726 23.657 6.23511 24.0574 7.98804 24.1453C9.79468 24.2478 15.2097 24.2478 17.0164 24.1453C18.7693 24.0623 20.322 23.6619 21.6013 22.3777C22.8806 21.0984 23.281 19.5457 23.3689 17.7927C23.4714 15.9861 23.4714 10.5759 23.3689 8.76929ZM21.0349 19.7312C20.6541 20.6882 19.9167 21.4255 18.9548 21.8113C17.5144 22.3826 14.0964 22.2507 12.5046 22.2507C10.9128 22.2507 7.48999 22.3777 6.05444 21.8113C5.09741 21.4304 4.36011 20.6931 3.97437 19.7312C3.40308 18.2908 3.53491 14.8728 3.53491 13.281C3.53491 11.6892 3.40796 8.26636 3.97437 6.83081C4.35522 5.87378 5.09253 5.13647 6.05444 4.75073C7.49487 4.17944 10.9128 4.31128 12.5046 4.31128C14.0964 4.31128 17.5193 4.18433 18.9548 4.75073C19.9119 5.13159 20.6492 5.8689 21.0349 6.83081C21.6062 8.27124 21.4744 11.6892 21.4744 13.281C21.4744 14.8728 21.6062 18.2957 21.0349 19.7312Z" fill="#A4A1AA"/>
</svg>
