<svg width="25" height="26" viewBox="0 0 25 26" fill="none" xmlns="http://www.w3.org/2000/svg">
<path d="M21.0938 2.34863H3.90625C3.28465 2.34863 2.68851 2.59556 2.24897 3.0351C1.80943 3.47464 1.5625 4.07078 1.5625 4.69238L1.5625 21.8799C1.5625 22.5015 1.80943 23.0976 2.24897 23.5372C2.68851 23.9767 3.28465 24.2236 3.90625 24.2236H10.6079V16.7866H7.53174V13.2861H10.6079V10.6182C10.6079 7.5835 12.4146 5.90723 15.1816 5.90723C16.5068 5.90723 17.8926 6.14355 17.8926 6.14355V9.12207H16.3657C14.8613 9.12207 14.3921 10.0557 14.3921 11.0132V13.2861H17.7505L17.2134 16.7866H14.3921V24.2236H21.0938C21.7154 24.2236 22.3115 23.9767 22.751 23.5372C23.1906 23.0976 23.4375 22.5015 23.4375 21.8799V4.69238C23.4375 4.07078 23.1906 3.47464 22.751 3.0351C22.3115 2.59556 21.7154 2.34863 21.0938 2.34863Z" fill="#A4A1AA"/>
</svg>
